<svg xmlns="http://www.w3.org/2000/svg" viewBox="0 0 32 32" width="32" height="32">
  <!-- Generated output -- edit the generator, not this file. -->
  <style>
    svg{--ink:#16150F;--paper:#F4F2EC;--rule:#CFCBBE}
    @media (prefers-color-scheme: dark){svg{--ink:#ECE8DC;--paper:#141311;--rule:#3B392F}}
  </style>
  <rect x="0.5" y="0.5" width="31" height="31" rx="6" fill="var(--paper)" stroke="var(--rule)"/>
  <g transform="translate(1.000,0.250) scale(0.125)"><circle cx="120" cy="126" r="96" fill="none" stroke="var(--ink)" stroke-width="12"/><g transform="translate(26,8) scale(0.78)"><g fill="var(--ink)" stroke="var(--paper)" stroke-width="10" stroke-linejoin="miter" paint-order="stroke"><polygon points="56,118 60,90 72,80 88,94 90,106"/><polygon points="86,102 92,62 108,50 126,66 128,94"/><polygon points="118,94 124,48 142,34 162,52 166,94"/><polygon points="156,96 164,58 180,50 194,72 194,112"/><polygon points="188,114 198,92 210,90 214,110 212,124"/><polygon points="196,118 206,90 214,126"/><polygon points="216,128 238,108 232,146"/></g><g fill="var(--ink)"><polygon points="12,150 18,134 36,126 58,124 62,146 44,156 20,156"/><polygon points="52,146 56,126 78,106 106,94 132,90 158,96 178,114 182,146 152,166 96,168 66,160"/><polygon points="166,106 208,124 234,150 220,164 190,156 168,152"/><polygon points="196,118 206,90 214,126"/><polygon points="216,128 238,108 232,146"/><polygon points="62,150 92,150 90,194 64,194"/><polygon points="132,152 170,152 170,194 136,194"/><polygon points="56,118 60,90 72,80 88,94 90,106"/><polygon points="86,102 92,62 108,50 126,66 128,94"/><polygon points="118,94 124,48 142,34 162,52 166,94"/><polygon points="156,96 164,58 180,50 194,72 194,112"/><polygon points="188,114 198,92 210,90 214,110 212,124"/></g><g stroke="var(--paper)" stroke-width="4.5" fill="none"><line x1="60" y1="124" x2="64" y2="150"/><line x1="62" y1="150" x2="92" y2="150"/><line x1="132" y1="152" x2="170" y2="152"/><line x1="72" y1="82" x2="80" y2="106"/><line x1="108" y1="52" x2="116" y2="94"/><line x1="142" y1="36" x2="152" y2="94"/><line x1="180" y1="52" x2="184" y2="112"/><line x1="210" y1="92" x2="206" y2="120"/></g><g fill="var(--paper)"><polygon points="24,138 36,135 33,145"/></g></g></g>
</svg>
